<svg width="25" height="25" viewBox="0 0 25 25" fill="none" xmlns="http://www.w3.org/2000/svg">
<path fill-rule="evenodd" clip-rule="evenodd" d="M21.5335 5.90217C21.3779 5.69428 21.1757 5.52569 20.9433 5.40989C20.7108 5.2941 20.4545 5.2343 20.1948 5.2353H5.9069L5.87716 5.11632C5.72666 4.51148 5.37797 3.97444 4.88668 3.59087C4.3954 3.2073 3.78982 2.99929 3.16654 3H1.55882C1.41061 3 1.26848 3.05888 1.16368 3.16368C1.05888 3.26848 1 3.41062 1 3.55883C1 3.70703 1.05888 3.84917 1.16368 3.95397C1.26848 4.05877 1.41061 4.11765 1.55882 4.11765H3.16654C3.5405 4.11719 3.90385 4.24192 4.19868 4.47197C4.4935 4.70203 4.70283 5.02415 4.79329 5.38701L7.29927 15.4131C7.44977 16.0179 7.79847 16.555 8.28976 16.9386C8.78105 17.3221 9.38664 17.5301 10.0099 17.5294H18.3235C18.4717 17.5294 18.6139 17.4705 18.7187 17.3657C18.8235 17.2609 18.8824 17.1188 18.8824 16.9706C18.8824 16.8224 18.8235 16.6802 18.7187 16.5754C18.6139 16.4706 18.4717 16.4118 18.3235 16.4118H10.0099C9.63597 16.4122 9.27262 16.2875 8.9778 16.0574C8.68297 15.8274 8.47364 15.5053 8.38318 15.1424L8.14177 14.1765H17.7549C18.3616 14.1745 18.9513 13.9761 19.4357 13.6109C19.9201 13.2457 20.2732 12.7334 20.4421 12.1507L21.8069 7.37236C21.8792 7.12296 21.8921 6.86011 21.8446 6.60483C21.7971 6.34955 21.6906 6.10892 21.5335 5.90217ZM18.323 22.0004C19.2488 22.0004 19.9994 21.2498 19.9994 20.3239C19.9994 19.398 19.2488 18.6475 18.323 18.6475C17.3971 18.6475 16.6465 19.398 16.6465 20.3239C16.6465 21.2498 17.3971 22.0004 18.323 22.0004ZM9.94099 20.3237C9.94099 21.2496 9.19041 22.0002 8.26452 22.0002C7.33863 22.0002 6.58805 21.2496 6.58805 20.3237C6.58805 19.3979 7.33863 18.6473 8.26452 18.6473C9.19041 18.6473 9.94099 19.3979 9.94099 20.3237Z" fill="#F72055"/>
</svg>
