<svg width="27" height="27" viewBox="0 0 27 27" fill="none" xmlns="http://www.w3.org/2000/svg">
<path d="M7.99404 2.20886H5.89612C3.478 2.20886 2.20821 3.47865 2.20821 5.88574V7.98365C2.20821 10.3907 3.478 11.6605 5.88508 11.6605H7.983C10.3901 11.6605 11.6599 10.3907 11.6599 7.98365V5.88574C11.6709 3.47865 10.4011 2.20886 7.99404 2.20886Z" fill="white"/>
<path d="M20.6151 2.20886H18.5172C16.1101 2.20886 14.8403 3.47865 14.8403 5.88574V7.98365C14.8403 10.3907 16.1101 11.6605 18.5172 11.6605H20.6151C23.0222 11.6605 24.292 10.3907 24.292 7.98365V5.88574C24.292 3.47865 23.0222 2.20886 20.6151 2.20886Z" fill="white"/>
<path d="M20.6151 14.8291H18.5172C16.1101 14.8291 14.8403 16.0989 14.8403 18.506V20.6039C14.8403 23.011 16.1101 24.2808 18.5172 24.2808H20.6151C23.0222 24.2808 24.292 23.011 24.292 20.6039V18.506C24.292 16.0989 23.0222 14.8291 20.6151 14.8291Z" fill="white"/>
<path d="M7.99404 14.8291H5.89612C3.478 14.8291 2.20821 16.0989 2.20821 18.506V20.6039C2.20821 23.022 3.478 24.2918 5.88508 24.2918H7.983C10.3901 24.2918 11.6599 23.022 11.6599 20.615V18.517C11.6709 16.0989 10.4011 14.8291 7.99404 14.8291Z" fill="white"/>
</svg>
