<svg width="25" height="25" viewBox="0 0 25 25" fill="none" xmlns="http://www.w3.org/2000/svg">
<path d="M18.7276 6.35C19.5425 7.21272 20 8.38078 20 9.59844C20 10.8161 19.5425 11.9842 18.7276 12.8469L11.9979 20L5.26812 12.8469C4.66292 12.2044 4.25089 11.3879 4.08361 10.4996C3.91633 9.61132 4.00123 8.69075 4.32768 7.85312C4.65414 7.01549 5.20763 6.29801 5.91889 5.79051C6.63014 5.28301 7.46755 5.00803 8.32629 5C9.47457 5.00735 10.5736 5.49253 11.3845 6.35C11.6209 6.59677 11.827 6.87395 11.9979 7.175C12.1687 6.87395 12.3748 6.59677 12.6113 6.35C13.0108 5.92255 13.4869 5.58312 14.0119 5.35144C14.5369 5.11975 15.1003 5.00044 15.6695 5.00044C16.2386 5.00044 16.802 5.11975 17.327 5.35144C17.852 5.58312 18.3281 5.92255 18.7276 6.35Z" fill="#AAAAAA" stroke="#AAAAAA" stroke-width="1.5" stroke-linecap="round" stroke-linejoin="round"/>
</svg>
