<svg width="26" height="25" viewBox="0 0 26 25" fill="none" xmlns="http://www.w3.org/2000/svg">
<path d="M13.3365 4C10.9785 4 9.06152 5.917 9.06152 8.275C9.06152 10.588 10.8705 12.46 13.2285 12.541C13.3005 12.532 13.3725 12.532 13.4265 12.541C13.4445 12.541 13.4535 12.541 13.4715 12.541C13.4805 12.541 13.4805 12.541 13.4895 12.541C15.7935 12.46 17.6025 10.588 17.6115 8.275C17.6115 5.917 15.6945 4 13.3365 4Z" fill="#AAAAAA"/>
<path d="M17.908 14.9342C15.397 13.2602 11.302 13.2602 8.773 14.9342C7.63 15.6992 7 16.7342 7 17.8412C7 18.9482 7.63 19.9742 8.764 20.7302C10.024 21.5762 11.68 21.9992 13.336 21.9992C14.992 21.9992 16.648 21.5762 17.908 20.7302C19.042 19.9652 19.672 18.9392 19.672 17.8232C19.663 16.7162 19.042 15.6902 17.908 14.9342Z" fill="#AAAAAA"/>
</svg>
